<svg width="68" height="63" viewBox="0 0 68 63" fill="none" xmlns="http://www.w3.org/2000/svg">
<path d="M34.0002 62.9844C52.7306 62.9844 67.9063 48.8926 67.9063 31.5C67.9063 14.1074 52.7306 0.015625 34.0002 0.015625C15.2697 0.015625 0.0939941 14.1074 0.0939941 31.5C0.0939941 48.8926 15.2697 62.9844 34.0002 62.9844ZM18.1408 25.9141H34.0002V16.9131C34.0002 15.5547 35.7775 14.8691 36.8029 15.834L52.4298 30.4209C53.0724 31.0176 53.0724 31.9697 52.4298 32.5664L36.8029 47.166C35.7638 48.1309 34.0002 47.4453 34.0002 46.0869V37.0859H18.1408C17.2385 37.0859 16.5002 36.4004 16.5002 35.5625V27.4375C16.5002 26.5996 17.2385 25.9141 18.1408 25.9141Z" fill="black"/>
</svg>
