<svg width="71" height="66" viewBox="0 0 71 66" fill="none" xmlns="http://www.w3.org/2000/svg">
<path d="M35.0041 1.94418C16.2737 1.94418 1.09795 16.036 1.09795 33.4286C1.09795 50.8211 16.2737 64.9129 35.0041 64.9129C53.7345 64.9129 68.9103 50.8211 68.9103 33.4286C68.9103 16.036 53.7345 1.94418 35.0041 1.94418ZM50.8635 39.0145H35.0041V48.0155C35.0041 49.3739 33.2268 50.0594 32.2014 49.0946L16.5745 34.5077C15.9319 33.911 15.9319 32.9588 16.5745 32.3622L32.2014 17.7625C33.2405 16.7977 35.0041 17.4832 35.0041 18.8416V27.8426H50.8635C51.7658 27.8426 52.5041 28.5282 52.5041 29.3661V37.4911C52.5041 38.3289 51.7658 39.0145 50.8635 39.0145Z" fill="black"/>
</svg>
